# xmcd
# Track frame offsets:
# 150
# 15152
# 31659
# 49247
# 66382
# 81068
# 97665
# 120386
# 137132
# 155676
# 176254
# 189859
#
# Disc length: 3012 seconds
# Revision: 0
# Processed by: cddbd v1.4PL0 Copyright (c) Steve Scherf et al.
# Submitted via: VisiTrax 2.9.5.181 - For more info visit www.synapsa.com
#
DISCID=850bc20c
DTITLE=Matchbox 20 - More Than You Think You Are
DYEAR=1900
DGENRE=
TTITLE0=Feel
TTITLE1=Disease
TTITLE2=Bright Lights
TTITLE3=Unwell
TTITLE4=Cold
TTITLE5=All I Need
TTITLE6=Hand Me Down
TTITLE7=Could I Be You
TTITLE8=Downfall
TTITLE9=Soul
TTITLE10=You're So Real
TTITLE11=The Difference
EXTD=
EXTT0=
EXTT1=
EXTT2=
EXTT3=
EXTT4=
EXTT5=
EXTT6=
EXTT7=
EXTT8=
EXTT9=
EXTT10=
EXTT11=
PLAYORDER=
